<?xml version="1.0" encoding="UTF-8" standalone="no"?>
<svg width="78px" height="16px" viewBox="0 0 78 16" version="1.1" xmlns="http://www.w3.org/2000/svg" xmlns:xlink="http://www.w3.org/1999/xlink" xmlns:sketch="http://www.bohemiancoding.com/sketch/ns">
    <title>Slice 1</title>
    <description>Created with Sketch (http://www.bohemiancoding.com/sketch)</description>
    <defs></defs>
    <g id="Page-1" stroke="none" stroke-width="1" fill="none" fill-rule="evenodd" sketch:type="MSPage">
        <g id="logo" sketch:type="MSLayerGroup" transform="translate(1.000000, 0.000000)">
            <g id="Group" sketch:type="MSShapeGroup">
                <g transform="translate(17.000000, 0.000000)" id="Shape">
                    <path d="M40.094,0.305 C40.129,0.161 40.274,0.035 40.416,0.035 L40.703,0.035 C40.81,0.035 40.973,0.124 41.01,0.233 L44.76,9.402 L44.83,9.402 L48.562,0.233 C48.597,0.124 48.742,0.035 48.868,0.035 L49.154,0.035 C49.299,0.035 49.441,0.161 49.478,0.305 L51.685,12.363 C51.739,12.615 51.614,12.777 51.363,12.777 L50.195,12.777 C50.035,12.777 49.89,12.65 49.855,12.525 L48.527,4.502 L48.472,4.502 L45.243,12.759 C45.207,12.866 45.099,12.956 44.939,12.956 L44.615,12.956 C44.472,12.956 44.346,12.866 44.31,12.759 L41.062,4.502 L40.99,4.502 L39.699,12.525 C39.679,12.65 39.519,12.777 39.375,12.777 L38.209,12.777 C37.958,12.777 37.832,12.615 37.867,12.363 L40.094,0.305 L40.094,0.305 Z" fill="#5A04A8"></path>
                    <path d="M56.578,5.418 C58.443,5.418 59.88,6.818 59.88,8.738 C59.88,8.862 59.862,9.096 59.844,9.222 C59.826,9.402 59.682,9.527 59.521,9.527 L54.64,9.527 C54.694,10.497 55.537,11.447 56.703,11.447 C57.349,11.447 57.942,11.16 58.299,10.927 C58.516,10.802 58.641,10.729 58.785,10.908 L59.287,11.59 C59.412,11.735 59.467,11.877 59.252,12.056 C58.731,12.505 57.798,12.954 56.596,12.954 C54.424,12.954 52.99,11.248 52.99,9.184 C52.989,7.159 54.424,5.418 56.578,5.418 L56.578,5.418 Z M58.211,8.397 C58.156,7.535 57.44,6.799 56.561,6.799 C55.592,6.799 54.838,7.499 54.731,8.397 L58.211,8.397 L58.211,8.397 Z" fill="#5A04A8"></path>
                    <g fill="#3AC400">
                        <path d="M14.69,0.214 L13.487,0.214 C13.344,0.214 13.2,0.339 13.164,0.465 L11.028,8.701 L10.956,8.701 L7.995,0.233 C7.958,0.124 7.834,0.035 7.69,0.035 L7.368,0.035 C7.224,0.035 7.098,0.124 7.062,0.233 L4.137,8.701 L4.066,8.701 L1.894,0.465 C1.858,0.339 1.714,0.214 1.572,0.214 L0.368,0.214 C0.117,0.214 -0.026,0.393 0.046,0.644 L3.437,12.704 C3.474,12.849 3.617,12.956 3.76,12.956 L4.048,12.956 C4.173,12.956 4.318,12.866 4.354,12.759 L7.457,3.839 L7.547,3.839 L10.706,12.759 C10.741,12.866 10.885,12.956 11.01,12.956 L11.297,12.956 C11.441,12.956 11.585,12.849 11.62,12.704 L15.012,0.644 C15.084,0.393 14.939,0.214 14.69,0.214 L14.69,0.214 Z"></path>
                        <path d="M25.701,8.379 C25.002,8.074 24.552,7.877 24.552,7.409 C24.552,7.139 24.75,6.873 25.36,6.873 C26.042,6.873 26.831,7.248 26.831,7.248 C26.976,7.32 27.208,7.267 27.298,7.104 L27.62,6.495 C27.729,6.315 27.64,6.082 27.477,5.974 C27.118,5.74 26.365,5.417 25.36,5.417 C23.636,5.417 22.902,6.494 22.902,7.391 C22.902,8.576 23.835,9.259 24.947,9.743 C25.934,10.191 26.329,10.425 26.329,10.909 C26.329,11.305 25.987,11.519 25.45,11.519 C24.571,11.519 23.78,11.054 23.78,11.054 C23.602,10.945 23.404,10.997 23.332,11.142 L22.955,11.842 C22.884,11.985 22.955,12.147 23.062,12.219 C23.44,12.524 24.229,12.954 25.432,12.954 C27.029,12.954 28.087,11.968 28.087,10.854 C28.087,9.51 27.01,8.954 25.701,8.379 L25.701,8.379 Z"></path>
                        <path d="M33.313,5.418 C32.165,5.418 31.339,6.064 31.161,6.19 L31.161,0.555 C31.161,0.375 30.998,0.213 30.819,0.213 L29.778,0.213 C29.597,0.213 29.437,0.375 29.437,0.555 L29.437,12.435 C29.437,12.614 29.597,12.776 29.778,12.776 L30.8,12.776 C31.033,12.776 31.16,12.631 31.16,12.435 L31.16,8.109 C31.249,7.803 32.003,6.979 33.097,6.979 C34.031,6.979 34.623,7.625 34.623,8.791 L34.623,12.435 C34.623,12.614 34.766,12.776 34.963,12.776 L35.968,12.776 C36.148,12.776 36.31,12.614 36.31,12.435 L36.31,8.827 C36.311,6.873 35.342,5.418 33.313,5.418 L33.313,5.418 Z"></path>
                        <path d="M21.634,7.064 L22.076,6.064 C22.202,5.831 22.058,5.597 21.772,5.597 L20.794,5.597 C20.632,5.597 20.488,5.632 20.417,5.795 L18.358,10.481 L18.34,10.481 L16.155,5.795 C16.101,5.687 15.957,5.597 15.85,5.597 L14.665,5.597 C14.396,5.597 14.253,5.83 14.36,6.064 L17.468,12.493 L17.192,13.089 L17.007,13.472 C16.8,13.821 16.155,14.581 14.675,13.987 C14.552,13.937 14.199,13.966 14.199,14.356 L14.199,15.076 C14.199,15.443 14.47,15.583 14.552,15.621 C15.254,15.948 16.138,15.833 16.138,15.833 C17.812,15.687 18.607,14.021 18.607,14.021 L21.634,7.064 L21.634,7.064 Z"></path>
                    </g>
                </g>
                <g id="Shape">
                    <path d="M5.147,0.014 L0.975,1.109 L-0.121,5.284 L7.159,12.564 L12.428,7.295 L5.147,0.014 L5.147,0.014 Z M2.514,3.508 C2.037,3.508 1.654,3.123 1.654,2.647 C1.654,2.173 2.037,1.79 2.514,1.79 C2.987,1.79 3.373,2.174 3.373,2.647 C3.373,3.123 2.987,3.508 2.514,3.508 L2.514,3.508 Z" fill="#3AC400"></path>
                    <path d="M7.16,2.025 L12.428,7.294 L14.439,5.283 L13.344,1.108 L9.171,0.013 L7.16,2.025 L7.16,2.025 Z M10.945,2.646 C10.945,2.172 11.33,1.789 11.805,1.789 C12.28,1.789 12.664,2.173 12.664,2.646 C12.664,3.123 12.28,3.507 11.805,3.507 C11.33,3.507 10.945,3.123 10.945,2.646 L10.945,2.646 Z" fill="#5A04A8"></path>
                </g>
            </g>
        </g>
    </g>
</svg>